<svg width="60" height="48" viewBox="0 0 60 48" fill="none" xmlns="http://www.w3.org/2000/svg">
<g clip-path="url(#clip0_518_7)">
<path d="M52 0H8C3.58172 0 0 3.58172 0 8V40C0 44.4183 3.58172 48 8 48H52C56.4183 48 60 44.4183 60 40V8C60 3.58172 56.4183 0 52 0Z" fill="#FFBF3F"/>
<path d="M26.5 25.6L27.7 21.7666L24.5333 19.3H28.4L29.6667 15.3333L30.9 19.3H34.8L31.6333 21.7666L32.8 25.6L29.6667 23.2333L26.5 25.6ZM21.8 38V27.8666C20.8 26.8222 20.0833 25.6777 19.65 24.4333C19.2167 23.1888 19 21.9333 19 20.6666C19 17.6444 20.0222 15.1111 22.0667 13.0667C24.1111 11.0222 26.6445 10 29.6667 10C32.6889 10 35.2222 11.0222 37.2667 13.0667C39.3111 15.1111 40.3333 17.6444 40.3333 20.6666C40.3333 21.9333 40.1167 23.1888 39.6833 24.4333C39.25 25.6777 38.5333 26.8222 37.5333 27.8666V38L29.6667 35.3666L21.8 38ZM29.6667 29.3333C32.0889 29.3333 34.1389 28.4944 35.8167 26.8166C37.4944 25.1388 38.3333 23.0888 38.3333 20.6666C38.3333 18.2444 37.4944 16.1944 35.8167 14.5167C34.1389 12.8389 32.0889 12 29.6667 12C27.2445 12 25.1945 12.8389 23.5167 14.5167C21.8389 16.1944 21 18.2444 21 20.6666C21 23.0888 21.8389 25.1388 23.5167 26.8166C25.1945 28.4944 27.2445 29.3333 29.6667 29.3333ZM23.8 35.2L29.6667 33.3666L35.5333 35.2V29.5C34.6444 30.1444 33.6889 30.6111 32.6667 30.9C31.6445 31.1888 30.6445 31.3333 29.6667 31.3333C28.6889 31.3333 27.6889 31.1888 26.6667 30.9C25.6445 30.6111 24.6889 30.1444 23.8 29.5V35.2Z" fill="#333333" stroke="#333333" stroke-width="0.5"/>
</g>
<defs>
<clipPath id="clip0_518_7">
<rect width="60" height="48" fill="white"/>
</clipPath>
</defs>
</svg>
